Coordinates
version=1
nRows=43
nColumns=12
inDegrees=yes

Units are S.I. units (second, meters, Newtons, ...)
Angles are in degrees

endheader
time	SC_y	SC_z	SC_x	AC_y	AC_z	AC_x	GH_y	GH_z	GH_yy	EL_x	PS_y
       0.0              -54.68          18.51          17.92          34.35          9.278          19.29         -22.13          20.06          129.2          69.87          137.7
  0.003602              -54.67          18.52          17.92          34.36          9.273          19.29         -22.15          20.06          129.2          69.86          137.7
  0.007203              -54.67          18.52          17.93          34.36          9.269          19.29         -22.16          20.07          129.2          69.86          137.7
    0.0108              -54.66          18.52          17.94          34.37          9.264          19.29         -22.17          20.08          129.2          69.86          137.7
   0.01441              -54.66          18.52          17.94          34.37          9.259          19.29         -22.19          20.09          129.1          69.85          137.7
   0.01801              -54.65          18.52          17.95          34.38          9.254          19.29         -22.21           20.1          129.1          69.85          137.6
   0.02161              -54.65          18.52          17.96          34.39          9.248          19.29         -22.22          20.11          129.1          69.85          137.6
   0.02521              -54.64          18.52          17.97          34.39          9.242          19.29         -22.24          20.13          129.1          69.84          137.6
   0.02881              -54.64          18.53          17.98           34.4          9.235          19.29         -22.26          20.14          129.1          69.84          137.6
   0.03241              -54.63          18.53          17.98          34.41          9.228          19.29         -22.29          20.15          129.1          69.83          137.6
   0.03602              -54.62          18.53          17.99          34.42           9.22          19.29         -22.31          20.17          129.1          69.82          137.6
   0.03962              -54.61          18.53          18.01          34.43          9.212          19.29         -22.34          20.18          129.0          69.82          137.6
   0.04322              -54.61          18.53          18.02          34.44          9.203          19.29         -22.36           20.2          129.0          69.81          137.6
   0.04682               -54.6          18.54          18.03          34.45          9.194          19.29         -22.39          20.22          129.0           69.8          137.6
   0.05042              -54.59          18.54          18.04          34.46          9.183          19.28         -22.43          20.24          129.0           69.8          137.6
   0.05402              -54.57          18.54          18.06          34.47          9.172          19.28         -22.46          20.26          129.0          69.79          137.6
   0.05762              -54.56          18.54          18.07          34.48           9.16          19.28          -22.5          20.28          128.9          69.78          137.6
   0.06123              -54.55          18.55          18.09           34.5          9.147          19.28         -22.54          20.31          128.9          69.77          137.6
   0.06483              -54.54          18.55          18.11          34.51          9.132          19.28         -22.58          20.34          128.9          69.76          137.6
   0.06843              -54.52          18.55          18.13          34.53          9.116          19.28         -22.63          20.37          128.9          69.75          137.6
   0.07203               -54.5          18.56          18.16          34.55          9.099          19.28         -22.69           20.4          128.8          69.73          137.6
   0.07563              -54.48          18.56          18.18          34.57           9.08          19.28         -22.75          20.44          128.8          69.72          137.6
   0.07923              -54.46          18.57          18.21          34.59          9.059          19.28         -22.81          20.48          128.7           69.7          137.6
   0.08284              -54.44          18.57          18.24          34.62          9.035          19.27         -22.89          20.53          128.7          69.69          137.6
   0.08644              -54.41          18.58          18.28          34.65          9.009          19.27         -22.97          20.58          128.7          69.67          137.5
   0.09004              -54.39          18.59          18.31          34.68           8.98          19.27         -23.06          20.63          128.6          69.64          137.5
   0.09364              -54.35           18.6          18.36          34.72          8.947          19.27         -23.16           20.7          128.5          69.62          137.5
   0.09724              -54.32           18.6          18.41          34.76          8.911          19.27         -23.27          20.77          128.5          69.59          137.5
    0.1008              -54.28          18.61          18.46           34.8          8.869          19.26          -23.4          20.85          128.4          69.56          137.5
    0.1044              -54.23          18.63          18.52          34.86          8.822          19.26         -23.55          20.94          128.3          69.52          137.5
     0.108              -54.18          18.64          18.59          34.91          8.768          19.26         -23.72          21.04          128.2          69.48          137.4
    0.1116              -54.12          18.65          18.68          34.98          8.707          19.25         -23.91          21.16          128.1          69.44          137.4
    0.1152              -54.05          18.67          18.77          35.06          8.635          19.25         -24.13           21.3          127.9          69.38          137.4
    0.1189              -53.97          18.69          18.88          35.15          8.553          19.24         -24.39          21.46          127.8          69.32          137.4
    0.1225              -53.87          18.71          19.01          35.26          8.456          19.24         -24.69          21.65          127.6          69.25          137.3
    0.1261              -53.76          18.74          19.16          35.38          8.342          19.23         -25.05          21.87          127.3          69.16          137.3
    0.1297              -53.63          18.78          19.34          35.53          8.206          19.22         -25.47          22.13          127.1          69.06          137.2
    0.1333              -53.47          18.82          19.56          35.71          8.043          19.21         -25.97          22.45          126.8          68.94          137.1
    0.1369              -53.27          18.86          19.82          35.93          7.847           19.2         -26.59          22.83          126.4          68.79          137.1
    0.1405              -53.04          18.92          20.14          36.19          7.607          19.18         -27.33          23.29          125.9          68.61          137.0
    0.1441              -52.74          18.99          20.53          36.52           7.31          19.16         -28.26          23.87          125.3          68.39          136.8
    0.1477              -52.38          19.08          21.02          36.93           6.94          19.14         -29.41          24.59          124.6          68.11          136.7
    0.1513              -51.92           19.2          21.64          37.44          6.474          19.11         -30.86          25.49          123.7          67.76          136.5
